<svg width="30" height="30" viewBox="0 0 30 30" fill="none" xmlns="http://www.w3.org/2000/svg">
<path fill-rule="evenodd" clip-rule="evenodd" d="M7.49979 15C7.49979 14.7514 7.59856 14.5129 7.77438 14.3371C7.95019 14.1613 8.18865 14.0625 8.43729 14.0625L19.2992 14.0625L15.2735 10.0388C15.1864 9.95162 15.1172 9.84814 15.0701 9.73426C15.0229 9.62037 14.9986 9.49831 14.9986 9.37504C14.9986 9.25177 15.0229 9.1297 15.0701 9.01582C15.1172 8.90193 15.1864 8.79845 15.2735 8.71129C15.3607 8.62412 15.4642 8.55498 15.5781 8.5078C15.692 8.46063 15.814 8.43635 15.9373 8.43635C16.0606 8.43635 16.1826 8.46063 16.2965 8.5078C16.4104 8.55498 16.5139 8.62412 16.601 8.71129L22.226 14.3363C22.3133 14.4234 22.3826 14.5268 22.4299 14.6407C22.4771 14.7546 22.5015 14.8767 22.5015 15C22.5015 15.1233 22.4771 15.2455 22.4299 15.3593C22.3826 15.4732 22.3133 15.5767 22.226 15.6638L16.601 21.2888C16.425 21.4648 16.1862 21.5637 15.9373 21.5637C15.6883 21.5637 15.4496 21.4648 15.2735 21.2888C15.0975 21.1127 14.9986 20.874 14.9986 20.625C14.9986 20.3761 15.0975 20.1373 15.2735 19.9613L19.2992 15.9375L8.43729 15.9375C8.18865 15.9375 7.95019 15.8388 7.77438 15.6629C7.59856 15.4871 7.49979 15.2487 7.49979 15Z" fill="white"/>
</svg>
